<?xml version="1.0" encoding="utf-8"?>
<svg viewBox="0 0 500 300" xmlns="http://www.w3.org/2000/svg" xmlns:bx="https://boxy-svg.com">
  <defs>
    <bx:grid x="1.56" y="-1.136" width="100" height="101.083"/>
  </defs>
  <g id="Ebene_1-2" data-name="Ebene 1" transform="matrix(1.699742, -0.029669, 0.027864, 1.596375, -166.472672, -123.324013)" style="" bx:origin="-0.35 0.669">
    <g transform="matrix(0.979169, 0.016657, -0.017092, 0.954279, -197.515274, -55.543495)" bx:origin="0.494729 0.658131">
      <polygon class="cls-5" points="444.57 186.33 424.57 209.79 414.57 198.06 424.57 186.34 414.57 174.59 364.57 233.26 374.57 245 384.57 233.28 394.57 245 374.57 268.47 344.57 233.26 414.57 151.12 444.57 186.33" style="stroke: rgb(255, 255, 255); fill: rgb(255, 255, 255);"/>
      <polygon class="cls-2" points="514.58 221.53 474.57 268.47 464.57 256.73 504.58 209.79 514.58 221.53" style="stroke: rgb(255, 255, 255); fill: rgb(255, 255, 255);"/>
      <polygon class="cls-6" points="484.58 303.69 474.57 315.42 394.58 221.53 404.57 209.79 484.58 303.69" style="stroke: rgb(255, 255, 255); fill: rgb(255, 255, 255);"/>
      <polygon class="cls-4" points="564.58 233.26 534.58 268.47 514.58 245 524.58 233.26 534.58 245 544.58 233.26 494.58 174.59 484.58 186.33 494.58 198.06 484.58 209.79 464.58 186.33 494.58 151.12 564.58 233.26" style="stroke: rgb(255, 255, 255); fill: rgb(255, 255, 255);"/>
      <polygon class="cls-7" points="444.57 303.69 434.57 315.42 424.58 303.69 434.57 291.95 444.57 303.69" style="stroke: rgb(255, 255, 255); fill: rgb(255, 255, 255);"/>
    </g>
  </g>
</svg>